<svg version="1" xmlns="http://www.w3.org/2000/svg" width="1440" height="1440" viewBox="0 0 1080.000000 1080.000000"><path d="M0 540v540h1080V0H0v540zm768-325v45h81.1l-.1-14.3c-.1-7.8-.1-28 0-45V170h30v219h-30V285h-81v104h-30V170h30v45zM598.3 410.8c28.2 7.8 42.7 25.9 42.7 53.2 0 23.9-9.4 37.9-30 44.6l-6.4 2.1 3.9.7c7.4 1.4 18.3 7.4 24.3 13.4 11 11 15.6 23.5 15.6 42.7 0 18.4-4.5 30.5-15.3 40.8-6.9 6.6-12.6 10-22.2 13.3-13.6 4.6-23 5.4-65.6 5.4H506V407.9l42.3.3c39.6.4 42.7.5 50 2.6zM267 715v45h81.1l-.1-13.8c-.1-7.5-.1-27.8 0-45V670h30v219h-30V785h-81v104h-30V670h30v45z"/><path d="M536 465.6v33.6l23.8-.4c27.9-.6 34.1-1.9 41.8-9 12.8-11.8 12.2-41.6-1.2-50.7-7.9-5.5-17.9-7-45.1-7.1H536v33.6zM536 562.9V603h19.3c30.2 0 43.5-2.3 51.7-8.8 8-6.5 11.1-14.7 11.1-29.7 0-22.3-8.5-34.3-28-39.3-3.8-.9-13.6-1.6-29.8-1.9l-24.3-.5v40.1z"/></svg>